# Blender 4.3.2
# www.blender.org
mtllib Vege-Cabbagefix.mtl
o Icosphere
v 0.005382 0.054077 -0.003573
v 0.132803 0.181921 0.090689
v -0.069081 0.152542 0.215271
v -0.174493 0.169397 -0.003416
v -0.059212 0.161447 -0.178200
v 0.135635 0.179143 -0.092146
v 0.051873 0.353146 0.174463
v -0.171889 0.360869 0.120995
v -0.153559 0.352953 -0.110452
v 0.059306 0.361641 -0.182855
v 0.175479 0.359637 0.004172
v -0.006526 0.462726 0.000257
v -0.041785 0.056317 0.115349
v 0.087445 0.091647 0.061997
v 0.048735 0.158484 0.161419
v 0.197225 0.139994 -0.000301
v 0.091429 0.091727 -0.062783
v -0.122201 0.080067 -0.006581
v -0.161113 0.139623 0.114160
v -0.027934 0.101447 -0.101045
v -0.143838 0.159031 -0.099036
v 0.053125 0.163036 -0.141985
v 0.211188 0.263359 0.066507
v 0.188115 0.262889 -0.062650
v 0.007456 0.266942 0.234093
v 0.108778 0.261272 0.151923
v -0.177227 0.260530 0.057543
v -0.121898 0.260844 0.172534
v -0.107125 0.261041 -0.149724
v -0.183710 0.253668 -0.064065
v 0.115554 0.259333 -0.160043
v -0.004054 0.257263 -0.212418
v 0.132980 0.367571 0.100431
v -0.060378 0.378138 0.183359
v -0.199208 0.382252 0.000372
v -0.052702 0.363789 -0.156877
v 0.139161 0.377718 -0.102928
v 0.044943 0.463265 0.115808
v 0.107104 0.447815 0.001041
v -0.099653 0.454330 0.074277
v -0.095314 0.439625 -0.064924
v 0.030073 0.451664 -0.106983
vn 0.0901 -0.9833 -0.1578
vn 0.6254 -0.4243 0.6549
vn -0.2206 -0.4075 0.8862
vn -0.9520 -0.2969 -0.0751
vn -0.2585 -0.4944 -0.8299
vn 0.6408 -0.4091 -0.6496
vn 0.4523 0.3715 0.8108
vn -0.7958 0.2751 0.5395
vn -0.6733 0.3124 -0.6701
vn 0.2599 0.4152 -0.8718
vn 0.8830 0.4694 0.0004
vn -0.0258 0.9971 -0.0714
vn -0.0285 -0.9095 0.4146
vn 0.4969 -0.7902 0.3587
vn 0.5230 -0.4757 0.7072
vn 0.8346 -0.5504 -0.0222
vn 0.3961 -0.8026 -0.4460
vn -0.5543 -0.8110 -0.1875
vn -0.8477 -0.3913 0.3583
vn -0.0860 -0.8266 -0.5562
vn -0.7208 -0.4545 -0.5233
vn 0.3538 -0.5513 -0.7556
vn 0.9113 0.0323 0.4105
vn 0.9082 0.0204 -0.4179
vn 0.1843 0.0598 0.9810
vn 0.6475 -0.0574 0.7599
vn -0.9724 -0.0891 0.2157
vn -0.6806 0.0426 0.7314
vn -0.6131 0.0162 -0.7898
vn -0.9375 -0.1010 -0.3331
vn 0.6251 -0.1417 -0.7676
vn -0.0331 -0.0507 -0.9982
vn 0.7148 0.4449 0.5396
vn -0.2250 0.4882 0.8432
vn -0.9167 0.3923 -0.0762
vn -0.3404 0.4539 -0.8234
vn 0.7405 0.4735 -0.4770
vn 0.2578 0.8364 0.4837
vn 0.5565 0.8308 -0.0082
vn -0.3874 0.8905 0.2386
vn -0.3826 0.8400 -0.3848
vn 0.0972 0.8672 -0.4883
vt 0.181819 0.000000
vt 0.227273 0.078731
vt 0.136365 0.078731
vt 0.272728 0.157461
vt 0.318182 0.078731
vt 0.363637 0.157461
vt 0.909091 0.000000
vt 0.954545 0.078731
vt 0.863636 0.078731
vt 0.727273 0.000000
vt 0.772727 0.078731
vt 0.681818 0.078731
vt 0.545455 0.000000
vt 0.590909 0.078731
vt 0.500000 0.078731
vt 0.318182 0.236191
vt 0.090910 0.157461
vt 0.181819 0.157461
vt 0.136365 0.236191
vt 0.818182 0.157461
vt 0.909091 0.157461
vt 0.863636 0.236191
vt 0.636364 0.157461
vt 0.727273 0.157461
vt 0.681818 0.236191
vt 0.454546 0.157461
vt 0.545455 0.157461
vt 0.500000 0.236191
vt 0.227273 0.236191
vt 0.045455 0.236191
vt 0.772727 0.236191
vt 0.590909 0.236191
vt 0.409092 0.236191
vt 0.181819 0.314921
vt 0.272728 0.314921
vt 0.227273 0.393651
vt 0.000000 0.314921
vt 0.090910 0.314921
vt 0.045455 0.393651
vt 0.727273 0.314921
vt 0.818182 0.314921
vt 0.772727 0.393651
vt 0.545455 0.314921
vt 0.636364 0.314921
vt 0.590909 0.393651
vt 0.363637 0.314921
vt 0.454546 0.314921
vt 0.409092 0.393651
vt 0.500000 0.393651
vt 0.454546 0.472382
vt 0.681818 0.393651
vt 0.636364 0.472382
vt 0.863636 0.393651
vt 0.818182 0.472382
vt 0.909091 0.314921
vt 0.136365 0.393651
vt 0.090910 0.472382
vt 0.318182 0.393651
vt 0.272728 0.472382
vt 0.954545 0.236191
vt 1.000000 0.157461
vt 0.409092 0.078731
vt 0.363637 0.000000
s 1
f 1/1/1 14/2/14 13/3/13
f 2/4/2 14/5/14 16/6/16
f 1/7/1 13/8/13 18/9/18
f 1/10/1 18/11/18 20/12/20
f 1/13/1 20/14/20 17/15/17
f 2/4/2 16/6/16 23/16/23
f 3/17/3 15/18/15 25/19/25
f 4/20/4 19/21/19 27/22/27
f 5/23/5 21/24/21 29/25/29
f 6/26/6 22/27/22 31/28/31
f 2/4/2 23/16/23 26/29/26
f 3/17/3 25/19/25 28/30/28
f 4/20/4 27/22/27 30/31/30
f 5/23/5 29/25/29 32/32/32
f 6/26/6 31/28/31 24/33/24
f 7/34/7 33/35/33 38/36/38
f 8/37/8 34/38/34 40/39/40
f 9/40/9 35/41/35 41/42/41
f 10/43/10 36/44/36 42/45/42
f 11/46/11 37/47/37 39/48/39
f 39/48/39 42/49/42 12/50/12
f 39/48/39 37/47/37 42/49/42
f 37/47/37 10/43/10 42/49/42
f 42/45/42 41/51/41 12/52/12
f 42/45/42 36/44/36 41/51/41
f 36/44/36 9/40/9 41/51/41
f 41/42/41 40/53/40 12/54/12
f 41/42/41 35/41/35 40/53/40
f 35/41/35 8/55/8 40/53/40
f 40/39/40 38/56/38 12/57/12
f 40/39/40 34/38/34 38/56/38
f 34/38/34 7/34/7 38/56/38
f 38/36/38 39/58/39 12/59/12
f 38/36/38 33/35/33 39/58/39
f 33/35/33 11/46/11 39/58/39
f 24/33/24 37/47/37 11/46/11
f 24/33/24 31/28/31 37/47/37
f 31/28/31 10/43/10 37/47/37
f 32/32/32 36/44/36 10/43/10
f 32/32/32 29/25/29 36/44/36
f 29/25/29 9/40/9 36/44/36
f 30/31/30 35/41/35 9/40/9
f 30/31/30 27/22/27 35/41/35
f 27/22/27 8/55/8 35/41/35
f 28/30/28 34/38/34 8/37/8
f 28/30/28 25/19/25 34/38/34
f 25/19/25 7/34/7 34/38/34
f 26/29/26 33/35/33 7/34/7
f 26/29/26 23/16/23 33/35/33
f 23/16/23 11/46/11 33/35/33
f 31/28/31 32/32/32 10/43/10
f 31/28/31 22/27/22 32/32/32
f 22/27/22 5/23/5 32/32/32
f 29/25/29 30/31/30 9/40/9
f 29/25/29 21/24/21 30/31/30
f 21/24/21 4/20/4 30/31/30
f 27/22/27 28/60/28 8/55/8
f 27/22/27 19/21/19 28/60/28
f 19/21/19 3/61/3 28/60/28
f 25/19/25 26/29/26 7/34/7
f 25/19/25 15/18/15 26/29/26
f 15/18/15 2/4/2 26/29/26
f 23/16/23 24/33/24 11/46/11
f 23/16/23 16/6/16 24/33/24
f 16/6/16 6/26/6 24/33/24
f 17/15/17 22/27/22 6/26/6
f 17/15/17 20/14/20 22/27/22
f 20/14/20 5/23/5 22/27/22
f 20/12/20 21/24/21 5/23/5
f 20/12/20 18/11/18 21/24/21
f 18/11/18 4/20/4 21/24/21
f 18/9/18 19/21/19 4/20/4
f 18/9/18 13/8/13 19/21/19
f 13/8/13 3/61/3 19/21/19
f 16/6/16 17/62/17 6/26/6
f 16/6/16 14/5/14 17/62/17
f 14/5/14 1/63/1 17/62/17
f 13/3/13 15/18/15 3/17/3
f 13/3/13 14/2/14 15/18/15
f 14/2/14 2/4/2 15/18/15
